# xmcd
# 
# Track frame offsets:
#     150
#     5630
#     23872
#     46657
#     72087
#     95647
#     121242
#     152115
#     169445
#     184050
#     201155
#     228690
#     244475
# 
# Disc length: 3610
# 
# Revision: 8
# Processed by: cddbd v1.5.2PL0 Copyright (c) Steve Scherf et al.
# Submitted via: fre:ac v1.0.31
# 
DISCID=b30e180d
DTITLE=Dave Grusin - The GERSHWIN Connection
DYEAR=1991
DGENRE=Jazz
TTITLE0=That Certain Feeling
TTITLE1=Soon
TTITLE2=Fascinating Rhythm
TTITLE3=Prelude II
TTITLE4=How Long Has This Been Going On?
TTITLE5=There's A Boat Dat's Leavin' Soon For New York
TTITLE6=My Man's Gone Now
TTITLE7=Maybe
TTITLE8=Our Love Is Here To Stay
TTITLE9='S Wonderful
TTITLE10=I've Got Plenty O' Nuthin'
TTITLE11=Nice Work If You Can Get It
TTITLE12=Medley: Bess,You Is My Woman/I Loves You Porgy
EXTD=
EXTT0=
EXTT1=
EXTT2=
EXTT3=
EXTT4=
EXTT5=
EXTT6=
EXTT7=
EXTT8=
EXTT9=
EXTT10=
EXTT11=
EXTT12=
PLAYORDER=
